<?xml version="1.0" encoding="utf-8"?>
<!-- Generator: Adobe Illustrator 27.4.1, SVG Export Plug-In . SVG Version: 6.00 Build 0)  -->
<svg version="1.1" id="Laag_1" xmlns="http://www.w3.org/2000/svg" xmlns:xlink="http://www.w3.org/1999/xlink" x="0px" y="0px"
	 viewBox="0 0 163.57 138.31" style="enable-background:new 0 0 163.57 138.31;" xml:space="preserve">
<style type="text/css">
	.st0{fill:none;}
	.st1{stroke:#000000;stroke-miterlimit:10;}
	.st2{font-family:'FiraSans-ExtraLight';}
	.st3{font-size:28px;}
	.st4{fill:#FFFFFF;stroke:#FFFFFF;stroke-miterlimit:10;}
	.st5{fill:#FFFFFF;stroke:#FFFFFF;stroke-miterlimit:11;}
</style>
<rect x="3.13" y="111.33" class="st0" width="189.04" height="22.99"/>
<text transform="matrix(1 0 0 1 3.13 131.2064)"><tspan x="0" y="0" class="st1 st2 st3">PRIME </tspan><tspan x="78.87" y="0" class="st4 st2 st3">AUDIO</tspan></text>
<path class="st1" d="M66.59,9.07c0,0,12.01-1.94,22.46,3.55c6,3.16,11.21,11.18,12,17.09c1.24,9.23-4.51,18.3-12.64,24.53
	c-1.37,1.05-2.81,2.02-4.28,2.91l6.95,6.35c6.25-4.19,11.15-8.9,14.13-14.08c3.31-5.75,5.22-11.14,4.87-17.89
	c-0.1-1.82-0.35-3.73-0.8-5.78c-0.3-1.38-1.4-5.01-1.57-5.4c-3.3-7.81-9.53-13.88-17.16-16.79C75-2.36,55.87,0.89,55.87,0.89v50.1
	l10.72,9.79V9.07z"/>
<path class="st4" d="M84.31,57.4c-2.98,1.22-14.17,3.33-17.42,2.77v9.88c0,0,12.87,0.36,21.57-4L84.31,57.4z"/>
<polygon class="st5" points="55.87,2.24 55.87,16.48 101.1,100.65 113.55,100.39 "/>
<polygon class="st1" points="55.87,42.4 55.87,100.99 66.6,100.99 66.6,66.14 66.6,55.63 "/>
</svg>
